# xmcd CD database file
#
# Track frame offsets:
#	150
#	18008
#	43837
#	69294
#	94973
#	120442
#	154637
#	182793
#	202305
#
# Disc length: 3115 seconds
#
# Revision: 0
# Processed by: cddbd v1.5.1PL0 Copyright (c) Steve Scherf et al.
# Submitted via: CDex 1.50
#
DISCID=730c2909
DTITLE=Bob Borgstede - Narrative Threads
DYEAR=2004
DGENRE=Jazz
TTITLE0=December 15
TTITLE1=Not Too Late
TTITLE2=South Bend
TTITLE3=Nola's Waltz
TTITLE4=Redwood Falls
TTITLE5=Now What
TTITLE6=I Haven't Changed
TTITLE7=The Ripper
TTITLE8=Summer Groove
EXTD=YEAR: 2004
EXTT0=
EXTT1=
EXTT2=
EXTT3=
EXTT4=
EXTT5=
EXTT6=
EXTT7=
EXTT8=
PLAYORDER=
